<?xml version="1.0" encoding="UTF-8" standalone="no"?><!DOCTYPE svg PUBLIC "-//W3C//DTD SVG 1.1//EN" "http://www.w3.org/Graphics/SVG/1.1/DTD/svg11.dtd"><svg width="100%" height="100%" viewBox="0 0 1821 584" version="1.1" xmlns="http://www.w3.org/2000/svg" xmlns:xlink="http://www.w3.org/1999/xlink" xml:space="preserve" xmlns:serif="http://www.serif.com/" style="fill-rule:evenodd;clip-rule:evenodd;stroke-linejoin:round;stroke-miterlimit:2;"><g><path d="M109.049,415.879l-88.867,0l0,-388.867l67.773,0c48.872,0 85.721,8.984 110.547,26.953c24.827,17.969 37.24,43.251 37.24,75.847c-0,37.022 -15.56,64.236 -46.68,81.64c45.183,17.014 67.774,49.045 67.774,96.094c-0,33.333 -12.24,59.722 -36.719,79.167c-24.436,19.444 -61.458,29.166 -111.068,29.166l0,0Zm0,-16.666c17.405,-0 33.334,-1.389 47.787,-4.167c14.453,-2.778 28.255,-7.4 41.406,-13.867c13.151,-6.511 23.416,-16.059 30.794,-28.646c7.422,-12.587 11.133,-27.583 11.133,-44.987c-0,-39.627 -19.076,-66.471 -57.227,-80.534l-33.333,-12.24l31.12,-17.773c25.564,-14.062 38.346,-36.458 38.346,-67.187c0,-57.422 -43.706,-86.133 -131.12,-86.133l-51.106,-0l-0,355.534l72.2,-0l0,-0Zm473.868,-54.427c-9.983,24.435 -24.067,43.315 -42.253,56.64c-18.142,13.325 -45.356,19.987 -81.64,19.987c-45.53,0 -78.494,-13.976 -98.893,-41.927c-20.356,-27.951 -30.534,-71.549 -30.534,-130.794l-0,-54.492c-0,-59.245 10.178,-102.843 30.534,-130.795c20.399,-27.951 53.363,-41.927 98.893,-41.927c36.284,0 63.498,6.663 81.64,19.987c18.186,13.325 32.27,32.205 42.253,56.641l-14.974,7.226c-8.55,-21.484 -20.595,-38.042 -36.133,-49.674c-15.538,-11.675 -39.8,-17.513 -72.786,-17.513c-18.143,-0 -33.702,2.322 -46.68,6.966c-12.934,4.601 -24.588,12.457 -34.961,23.568c-10.373,11.111 -18.164,27.126 -23.372,48.047c-5.165,20.92 -7.748,46.744 -7.748,77.474l0,54.492c0,30.729 2.583,56.554 7.748,77.474c5.208,20.92 12.999,36.935 23.372,48.047c10.373,11.111 22.027,18.988 34.961,23.632c12.978,4.601 28.537,6.901 46.68,6.901c32.986,0 57.248,-5.816 72.786,-17.447c15.538,-11.676 27.583,-28.256 36.133,-49.74l14.974,7.227Zm128.312,54.427l153.32,-0l-67.187,-184.44l31.12,-17.774c25.564,-14.062 38.346,-36.458 38.346,-67.187c0,-57.422 -43.706,-86.133 -131.12,-86.133l-51.106,-0l-0,372.2l-16.667,0l-0,-388.867l67.773,0c48.872,0 85.721,8.984 110.547,26.953c24.827,17.969 37.24,43.251 37.24,75.847c-0,37.022 -15.56,64.236 -46.68,81.64l-18.88,10.547l70.508,193.88l-177.214,0l0,-16.666Zm281.13,-372.201l225,0l-138.867,222.201l-0,166.666l-16.667,0l-0,-166.666l-138.932,-222.201l19.466,0l127.799,203.906l117.188,-187.239l-194.987,-0l-0,-16.667Zm422.202,202.214l-8.334,-14.454l31.12,-17.773c25.564,-14.062 38.347,-36.458 38.347,-67.187c-0,-57.422 -43.707,-86.133 -131.12,-86.133l-51.107,-0l-0,372.2l-16.667,0l0,-388.867l67.774,0c48.871,0 85.72,8.984 110.547,26.953c24.826,17.969 37.239,43.251 37.239,75.847c0,37.022 -15.56,64.236 -46.68,81.64l-31.119,17.774Zm385.505,-202.214l-0,16.667l-130.534,-0l0,372.2l-16.667,0l0,-372.2l-130.534,-0l0,-16.667l277.735,0Z" style="fill:#c15200;fill-rule:nonzero;"/><path d="M21.459,553.087c-5.295,0 -7.943,-2.648 -7.943,-7.943l0,-66.406c0,-5.252 2.648,-7.878 7.943,-7.878l27.995,0c8.637,0 15.321,1.888 20.052,5.664c4.731,3.733 7.096,8.963 7.096,15.691c0,4.427 -1.128,8.246 -3.385,11.458c-2.214,3.168 -5.317,5.49 -9.31,6.966c4.687,1.302 8.333,3.603 10.937,6.901c2.604,3.299 3.907,7.487 3.907,12.565c-0,7.292 -2.474,12.956 -7.422,16.992c-4.948,3.993 -11.806,5.99 -20.573,5.99l-29.297,0Zm6.38,-47.396l19.01,0c10.2,0 15.3,-3.928 15.3,-11.784c-0,-7.856 -5.1,-11.784 -15.3,-11.784l-19.01,0l0,23.568Zm0,36.068l21.029,-0c10.286,-0 15.429,-4.123 15.429,-12.37c0,-8.246 -5.143,-12.37 -15.429,-12.37l-21.029,0l0,24.74Zm124.644,12.239c-4.991,0 -7.487,-2.604 -7.487,-7.812l0,-30.925l-24.935,-35.091c-1.041,-1.389 -1.497,-2.886 -1.367,-4.492c0.13,-1.606 0.76,-2.973 1.888,-4.101c1.172,-1.129 2.821,-1.693 4.948,-1.693c3.038,-0 5.686,1.606 7.943,4.818l19.206,27.278l19.401,-27.278c1.215,-1.737 2.408,-2.974 3.58,-3.711c1.172,-0.738 2.626,-1.107 4.362,-1.107c3.039,-0 5.035,1.107 5.99,3.32c0.955,2.214 0.542,4.579 -1.237,7.097l-24.87,35.091l0,30.794c0,5.208 -2.474,7.812 -7.422,7.812Zm116.194,-0.911c-5.296,0 -7.943,-2.648 -7.943,-7.943l-0,-66.406c-0,-5.252 2.647,-7.878 7.943,-7.878l22.591,0c13.802,0 24.457,3.538 31.966,10.612c7.509,7.075 11.263,17.21 11.263,30.404c-0,13.151 -3.754,23.307 -11.263,30.469c-7.509,7.161 -18.164,10.742 -31.966,10.742l-22.591,0Zm6.966,-12.37l14.713,0c18.967,0 28.451,-9.614 28.451,-28.841c-0,-19.097 -9.484,-28.646 -28.451,-28.646l-14.713,0l-0,57.487Zm113.551,12.37c-5.295,0 -7.943,-2.648 -7.943,-7.943l-0,-66.406c-0,-5.252 2.648,-7.878 7.943,-7.878l41.666,0c4.037,0 6.055,1.932 6.055,5.795c0,4.036 -2.018,6.054 -6.055,6.054l-35.286,0l-0,22.657l32.682,-0c4.037,-0 6.055,1.974 6.055,5.924c-0,3.993 -2.018,5.99 -6.055,5.99l-32.682,-0l-0,23.893l35.286,-0c4.037,-0 6.055,1.996 6.055,5.99c0,3.949 -2.018,5.924 -6.055,5.924l-41.666,0Zm126.006,0.911c-3.993,0 -6.836,-1.931 -8.528,-5.794l-30.469,-68.359c-1.215,-2.952 -1.15,-5.339 0.195,-7.162c1.346,-1.866 3.342,-2.799 5.99,-2.799c2.257,-0 3.949,0.499 5.078,1.497c1.128,0.955 2.083,2.409 2.865,4.362l25.065,58.203l25.13,-58.333c0.824,-1.866 1.823,-3.277 2.995,-4.232c1.171,-0.998 2.799,-1.497 4.882,-1.497c2.518,-0 4.406,0.933 5.664,2.799c1.303,1.867 1.281,4.254 -0.065,7.162l-30.403,68.359c-0.868,1.953 -1.953,3.407 -3.255,4.362c-1.259,0.955 -2.974,1.432 -5.144,1.432Zm90.061,-0.911c-5.295,0 -7.943,-2.648 -7.943,-7.943l0,-66.406c0,-5.252 2.648,-7.878 7.943,-7.878l41.667,0c4.036,0 6.055,1.932 6.055,5.795c-0,4.036 -2.019,6.054 -6.055,6.054l-35.287,0l0,22.657l32.683,-0c4.036,-0 6.054,1.974 6.054,5.924c0,3.993 -2.018,5.99 -6.054,5.99l-32.683,-0l0,23.893l35.287,-0c4.036,-0 6.055,1.996 6.055,5.99c-0,3.949 -2.019,5.924 -6.055,5.924l-41.667,0Zm100.877,0c-5.035,0 -7.552,-2.561 -7.552,-7.682l-0,-67.318c-0,-5.078 2.495,-7.617 7.486,-7.617c4.948,-0 7.422,2.539 7.422,7.617l0,62.305l33.855,-0c4.34,-0 6.51,2.083 6.51,6.25c-0,4.297 -2.17,6.445 -6.51,6.445l-41.211,0Zm126.48,1.172c-7.943,-0 -14.887,-1.736 -20.833,-5.208c-5.946,-3.516 -10.547,-8.442 -13.802,-14.779c-3.255,-6.337 -4.883,-13.802 -4.883,-22.396c-0,-8.594 1.628,-16.037 4.883,-22.331c3.255,-6.336 7.834,-11.219 13.737,-14.648c5.946,-3.472 12.912,-5.208 20.898,-5.208c8.03,-0 14.996,1.736 20.899,5.208c5.902,3.429 10.481,8.312 13.737,14.648c3.298,6.294 4.948,13.716 4.948,22.266c-0,8.637 -1.65,16.124 -4.948,22.461c-3.256,6.337 -7.835,11.263 -13.737,14.779c-5.903,3.472 -12.869,5.208 -20.899,5.208Zm0,-12.826c7.552,0 13.433,-2.604 17.643,-7.812c4.21,-5.208 6.316,-12.457 6.316,-21.745c-0,-9.332 -2.084,-16.558 -6.25,-21.68c-4.167,-5.121 -10.07,-7.682 -17.709,-7.682c-7.552,0 -13.433,2.561 -17.643,7.682c-4.167,5.122 -6.25,12.348 -6.25,21.68c-0,9.288 2.083,16.537 6.25,21.745c4.21,5.208 10.091,7.812 17.643,7.812Zm93.839,12.565c-4.992,0 -7.487,-2.56 -7.487,-7.682l-0,-67.903c-0,-5.035 2.517,-7.553 7.552,-7.553l28.125,0c9.028,0 15.994,2.257 20.898,6.771c4.905,4.514 7.357,10.808 7.357,18.88c0,8.073 -2.452,14.388 -7.357,18.946c-4.904,4.557 -11.87,6.836 -20.898,6.836l-20.768,-0l-0,24.023c-0,5.122 -2.474,7.682 -7.422,7.682Zm7.422,-43.489l18.424,-0c10.764,-0 16.146,-4.666 16.146,-13.998c-0,-9.244 -5.382,-13.867 -16.146,-13.867l-18.424,0l-0,27.865Zm100.717,42.578c-5.295,0 -7.943,-2.648 -7.943,-7.943l0,-66.406c0,-5.252 2.648,-7.878 7.943,-7.878l41.667,0c4.036,0 6.055,1.932 6.055,5.795c-0,4.036 -2.019,6.054 -6.055,6.054l-35.287,0l0,22.657l32.683,-0c4.036,-0 6.054,1.974 6.054,5.924c0,3.993 -2.018,5.99 -6.054,5.99l-32.683,-0l0,23.893l35.287,-0c4.036,-0 6.055,1.996 6.055,5.99c-0,3.949 -2.019,5.924 -6.055,5.924l-41.667,0Zm100.811,0.911c-4.991,0 -7.487,-2.56 -7.487,-7.682l0,-67.903c0,-5.035 2.518,-7.553 7.552,-7.553l28.125,0c9.028,0 15.994,2.171 20.899,6.511c4.904,4.297 7.357,10.33 7.357,18.099c-0,6.12 -1.606,11.198 -4.818,15.234c-3.168,3.993 -7.747,6.684 -13.737,8.073c3.95,1.259 7.227,4.254 9.831,8.984l8.724,16.211c1.302,2.518 1.54,4.818 0.716,6.901c-0.781,2.084 -2.778,3.125 -5.99,3.125c-2.083,0 -3.797,-0.434 -5.143,-1.302c-1.302,-0.911 -2.452,-2.3 -3.45,-4.166l-11.784,-21.68c-1.389,-2.648 -3.039,-4.405 -4.948,-5.273c-1.91,-0.912 -4.341,-1.368 -7.292,-1.368l-11.133,0l0,26.107c0,5.122 -2.474,7.682 -7.422,7.682Zm7.422,-44.921l18.229,-0c10.895,-0 16.342,-4.427 16.342,-13.282c-0,-8.767 -5.447,-13.151 -16.342,-13.151l-18.229,0l0,26.433Zm136.301,44.01c-5.295,0 -7.943,-2.648 -7.943,-7.943l0,-66.406c0,-5.252 2.648,-7.878 7.943,-7.878l27.995,0c8.637,0 15.321,1.888 20.052,5.665c4.731,3.732 7.096,8.962 7.096,15.69c0,4.427 -1.128,8.246 -3.385,11.458c-2.214,3.168 -5.317,5.49 -9.31,6.966c4.688,1.302 8.333,3.603 10.938,6.901c2.604,3.299 3.906,7.487 3.906,12.565c-0,7.292 -2.474,12.956 -7.422,16.992c-4.948,3.993 -11.806,5.99 -20.573,5.99l-29.297,0Zm6.38,-47.396l19.011,0c10.199,0 15.299,-3.928 15.299,-11.784c0,-7.856 -5.1,-11.784 -15.299,-11.784l-19.011,0l0,23.568Zm0,36.068l21.029,-0c10.286,-0 15.43,-4.123 15.43,-12.37c-0,-8.246 -5.144,-12.37 -15.43,-12.37l-21.029,0l0,24.74Zm131.741,12.5c-11.285,-0 -19.9,-2.93 -25.846,-8.789c-5.947,-5.903 -8.92,-14.605 -8.92,-26.107l0,-41.862c0,-5.078 2.496,-7.617 7.487,-7.617c4.948,-0 7.422,2.539 7.422,7.617l0,41.732c0,7.422 1.693,12.977 5.078,16.666c3.386,3.69 8.312,5.534 14.779,5.534c13.151,0 19.727,-7.4 19.727,-22.2l-0,-41.732c-0,-5.078 2.495,-7.617 7.486,-7.617c4.862,-0 7.292,2.539 7.292,7.617l0,41.862c0,11.502 -2.908,20.204 -8.724,26.107c-5.816,5.859 -14.41,8.789 -25.781,8.789Zm91.48,-1.172c-5.295,0 -7.943,-2.648 -7.943,-7.943l0,-66.406c0,-5.252 2.648,-7.878 7.943,-7.878l22.591,0c13.802,0 24.458,3.538 31.966,10.612c7.509,7.075 11.264,17.21 11.264,30.404c-0,13.151 -3.755,23.307 -11.264,30.469c-7.508,7.161 -18.164,10.742 -31.966,10.742l-22.591,0Zm6.966,-12.37l14.714,0c18.967,0 28.45,-9.614 28.45,-28.841c0,-19.097 -9.483,-28.646 -28.45,-28.646l-14.714,0l0,57.487Zm113.551,12.37c-5.295,0 -7.942,-2.648 -7.942,-7.943l-0,-66.406c-0,-5.252 2.647,-7.878 7.942,-7.878l22.592,0c13.802,0 24.457,3.538 31.966,10.612c7.508,7.075 11.263,17.21 11.263,30.404c-0,13.151 -3.755,23.307 -11.263,30.469c-7.509,7.161 -18.164,10.742 -31.966,10.742l-22.592,0Zm6.967,-12.37l14.713,0c18.967,0 28.451,-9.614 28.451,-28.841c-0,-19.097 -9.484,-28.646 -28.451,-28.646l-14.713,0l-0,57.487Zm132.691,13.281c-4.991,0 -7.487,-2.604 -7.487,-7.812l0,-30.925l-24.935,-35.091c-1.041,-1.389 -1.497,-2.886 -1.367,-4.492c0.13,-1.606 0.76,-2.973 1.888,-4.101c1.172,-1.129 2.821,-1.693 4.948,-1.693c3.038,-0 5.686,1.606 7.943,4.818l19.206,27.278l19.401,-27.278c1.215,-1.737 2.408,-2.974 3.58,-3.711c1.172,-0.738 2.626,-1.107 4.362,-1.107c3.039,-0 5.035,1.107 5.99,3.32c0.955,2.214 0.542,4.579 -1.237,7.097l-24.87,35.091l0,30.794c0,5.208 -2.474,7.812 -7.422,7.812Z" style="fill:#c15200;fill-rule:nonzero;"/></g></svg>